<?xml version="1.0" encoding="UTF-8" standalone="no"?>
<!DOCTYPE svg PUBLIC "-//W3C//DTD SVG 1.1//EN"
 "http://www.w3.org/Graphics/SVG/1.1/DTD/svg11.dtd">
<!-- Generated by graphviz version 2.38.0 (20140413.2041)
 -->
<!-- Title: G Pages: 1 -->
<svg width="270pt" height="384pt"
 viewBox="0.00 0.00 270.19 384.00" xmlns="http://www.w3.org/2000/svg" xmlns:xlink="http://www.w3.org/1999/xlink">
<g id="graph0" class="graph" transform="scale(1 1) rotate(0) translate(4 380)">
<title>G</title>
<polygon fill="white" stroke="none" points="-4,4 -4,-380 266.192,-380 266.192,4 -4,4"/>
<g id="clust1" class="cluster"><title>cluster_Global</title>
<path fill="none" stroke="gray" d="M145.192,-8C145.192,-8 242.192,-8 242.192,-8 248.192,-8 254.192,-14 254.192,-20 254.192,-20 254.192,-356 254.192,-356 254.192,-362 248.192,-368 242.192,-368 242.192,-368 145.192,-368 145.192,-368 139.192,-368 133.192,-362 133.192,-356 133.192,-356 133.192,-20 133.192,-20 133.192,-14 139.192,-8 145.192,-8"/>
<text text-anchor="middle" x="193.692" y="-355.2" font-family="Times,serif" font-size="11.00" fill="gray">Global</text>
</g>
<g id="clust2" class="cluster"><title>cluster_\Toutou</title>
<path fill="none" stroke="gray" d="M153.192,-16C153.192,-16 234.192,-16 234.192,-16 240.192,-16 246.192,-22 246.192,-28 246.192,-28 246.192,-328 246.192,-328 246.192,-334 240.192,-340 234.192,-340 234.192,-340 153.192,-340 153.192,-340 147.192,-340 141.192,-334 141.192,-328 141.192,-328 141.192,-28 141.192,-28 141.192,-22 147.192,-16 153.192,-16"/>
<text text-anchor="middle" x="193.692" y="-327.2" font-family="Times,serif" font-size="11.00" fill="gray">Toutou</text>
</g>
<g id="clust3" class="cluster"><title>cluster_\Toutou\doc</title>
<path fill="none" stroke="gray" d="M161.192,-24C161.192,-24 226.192,-24 226.192,-24 232.192,-24 238.192,-30 238.192,-36 238.192,-36 238.192,-300 238.192,-300 238.192,-306 232.192,-312 226.192,-312 226.192,-312 161.192,-312 161.192,-312 155.192,-312 149.192,-306 149.192,-300 149.192,-300 149.192,-36 149.192,-36 149.192,-30 155.192,-24 161.192,-24"/>
<text text-anchor="middle" x="193.692" y="-299.2" font-family="Times,serif" font-size="11.00" fill="gray">doc</text>
</g>
<g id="clust4" class="cluster"><title>cluster_\Toutou\doc\people</title>
<path fill="none" stroke="gray" d="M169.192,-212C169.192,-212 218.192,-212 218.192,-212 224.192,-212 230.192,-218 230.192,-224 230.192,-224 230.192,-272 230.192,-272 230.192,-278 224.192,-284 218.192,-284 218.192,-284 169.192,-284 169.192,-284 163.192,-284 157.192,-278 157.192,-272 157.192,-272 157.192,-224 157.192,-224 157.192,-218 163.192,-212 169.192,-212"/>
<text text-anchor="middle" x="193.692" y="-271.2" font-family="Times,serif" font-size="11.00" fill="gray">people</text>
</g>
<g id="clust5" class="cluster"><title>cluster_\Toutou\doc\Business</title>
<path fill="none" stroke="gray" d="M170.692,-132C170.692,-132 216.692,-132 216.692,-132 222.692,-132 228.692,-138 228.692,-144 228.692,-144 228.692,-192 228.692,-192 228.692,-198 222.692,-204 216.692,-204 216.692,-204 170.692,-204 170.692,-204 164.692,-204 158.692,-198 158.692,-192 158.692,-192 158.692,-144 158.692,-144 158.692,-138 164.692,-132 170.692,-132"/>
<text text-anchor="middle" x="193.692" y="-191.2" font-family="Times,serif" font-size="11.00" fill="gray">Business</text>
</g>
<!-- \\Toutou\\doc\\people\\Person -->
<g id="node1" class="node"><title>\\Toutou\\doc\\people\\Person</title>
<polygon fill="none" stroke="black" points="222.192,-256 165.192,-256 165.192,-220 222.192,-220 222.192,-256"/>
<text text-anchor="middle" x="193.692" y="-235.2" font-family="Courier,monospace" font-size="11.00">Person</text>
</g>
<!-- \\Ownable -->
<g id="node5" class="node"><title>\\Ownable</title>
<ellipse fill="none" stroke="black" cx="44.846" cy="-238" rx="44.6926" ry="18"/>
<text text-anchor="middle" x="44.846" y="-234.3" font-family="Times,serif" font-size="14.00" fill="gray">\Ownable</text>
</g>
<!-- \\Toutou\\doc\\people\\Person&#45;&gt;\\Ownable -->
<g id="edge1" class="edge"><title>\\Toutou\\doc\\people\\Person&#45;&gt;\\Ownable</title>
<path fill="none" stroke="black" stroke-dasharray="1,5" d="M165.071,-238C146.782,-238 122.18,-238 100.074,-238"/>
<polygon fill="none" stroke="black" points="99.7943,-234.5 89.7943,-238 99.7943,-241.5 99.7943,-234.5"/>
</g>
<!-- \\Toutou\\doc\\Business\\Stock -->
<g id="node2" class="node"><title>\\Toutou\\doc\\Business\\Stock</title>
<polygon fill="none" stroke="black" points="220.692,-176 166.692,-176 166.692,-140 220.692,-140 220.692,-176"/>
<text text-anchor="middle" x="193.692" y="-155.2" font-family="Courier,monospace" font-size="11.00">Stock</text>
</g>
<!-- \\Toutou\\doc\\PetShop -->
<g id="node3" class="node"><title>\\Toutou\\doc\\PetShop</title>
<polygon fill="none" stroke="black" points="225.692,-122 161.692,-122 161.692,-86 225.692,-86 225.692,-122"/>
<text text-anchor="middle" x="193.692" y="-101.2" font-family="Courier,monospace" font-size="11.00">PetShop</text>
</g>
<!-- \\Toutou\\doc\\Ownable -->
<g id="node4" class="node"><title>\\Toutou\\doc\\Ownable</title>
<polygon fill="none" stroke="black" points="225.692,-68 161.692,-68 161.692,-32 225.692,-32 225.692,-68"/>
<text text-anchor="middle" x="193.692" y="-47.2" font-family="Courier,monospace" font-size="11.00">Ownable</text>
</g>
</g>
</svg>
